<mxfile host="Electron" agent="Mozilla/5.0 (Windows NT 10.0; Win64; x64) AppleWebKit/537.36 (KHTML, like Gecko) draw.io/24.7.8 Chrome/128.0.6613.36 Electron/32.0.1 Safari/537.36" version="24.7.8">
  <diagram name="Page-1" id="Q9IfM1_KIyMgNQDRg3lQ">
    <mxGraphModel dx="2327" dy="1830" grid="1" gridSize="10" guides="1" tooltips="1" connect="1" arrows="1" fold="1" page="1" pageScale="1" pageWidth="850" pageHeight="1100" math="0" shadow="0">
      <root>
        <mxCell id="0" />
        <mxCell id="1" parent="0" />
        <mxCell id="UnMHtWUnDYg4pS29dPat-42" value="" style="rounded=0;whiteSpace=wrap;html=1;" vertex="1" parent="1">
          <mxGeometry x="900" y="146.5" width="140" height="373.5" as="geometry" />
        </mxCell>
        <mxCell id="UnMHtWUnDYg4pS29dPat-1" value="" style="whiteSpace=wrap;html=1;aspect=fixed;" vertex="1" parent="1">
          <mxGeometry x="-212" y="-70" width="1470" height="1470" as="geometry" />
        </mxCell>
        <mxCell id="UnMHtWUnDYg4pS29dPat-2" value="" style="rounded=0;whiteSpace=wrap;html=1;fillColor=#E6FFCC;" vertex="1" parent="1">
          <mxGeometry x="-140" y="-40" width="1240" height="730" as="geometry" />
        </mxCell>
        <mxCell id="UnMHtWUnDYg4pS29dPat-9" value="" style="edgeStyle=none;rounded=0;orthogonalLoop=1;jettySize=auto;html=1;" edge="1" parent="1" source="UnMHtWUnDYg4pS29dPat-3" target="UnMHtWUnDYg4pS29dPat-4">
          <mxGeometry relative="1" as="geometry" />
        </mxCell>
        <mxCell id="UnMHtWUnDYg4pS29dPat-3" value="" style="outlineConnect=0;dashed=0;verticalLabelPosition=bottom;verticalAlign=top;align=center;html=1;shape=mxgraph.aws3.users;fillColor=#D2D3D3;gradientColor=none;" vertex="1" parent="1">
          <mxGeometry x="-30" y="143.5" width="70" height="63" as="geometry" />
        </mxCell>
        <mxCell id="UnMHtWUnDYg4pS29dPat-26" value="" style="edgeStyle=none;rounded=0;orthogonalLoop=1;jettySize=auto;html=1;entryX=-0.004;entryY=0.093;entryDx=0;entryDy=0;entryPerimeter=0;" edge="1" parent="1" source="UnMHtWUnDYg4pS29dPat-4" target="UnMHtWUnDYg4pS29dPat-10">
          <mxGeometry relative="1" as="geometry">
            <mxPoint x="255" y="174.99999999999977" as="targetPoint" />
          </mxGeometry>
        </mxCell>
        <mxCell id="UnMHtWUnDYg4pS29dPat-4" value="" style="image;sketch=0;aspect=fixed;html=1;points=[];align=center;fontSize=12;image=img/lib/mscae/Load_Balancer_feature.svg;" vertex="1" parent="1">
          <mxGeometry x="140" y="150" width="50" height="50" as="geometry" />
        </mxCell>
        <mxCell id="UnMHtWUnDYg4pS29dPat-29" value="" style="edgeStyle=none;rounded=0;orthogonalLoop=1;jettySize=auto;html=1;entryX=0.954;entryY=0.53;entryDx=0;entryDy=0;entryPerimeter=0;exitX=0.004;exitY=0.659;exitDx=0;exitDy=0;exitPerimeter=0;" edge="1" parent="1" source="UnMHtWUnDYg4pS29dPat-10" target="UnMHtWUnDYg4pS29dPat-23">
          <mxGeometry relative="1" as="geometry">
            <mxPoint x="195" y="333.5" as="targetPoint" />
          </mxGeometry>
        </mxCell>
        <mxCell id="UnMHtWUnDYg4pS29dPat-10" value="" style="whiteSpace=wrap;html=1;aspect=fixed;fillColor=#FFFFCC;" vertex="1" parent="1">
          <mxGeometry x="425" y="140" width="383.5" height="383.5" as="geometry" />
        </mxCell>
        <mxCell id="UnMHtWUnDYg4pS29dPat-11" value="" style="image;aspect=fixed;html=1;points=[];align=center;fontSize=12;image=img/lib/azure2/compute/Kubernetes_Services.svg;" vertex="1" parent="1">
          <mxGeometry x="570" y="30" width="68" height="60" as="geometry" />
        </mxCell>
        <mxCell id="UnMHtWUnDYg4pS29dPat-12" value="" style="aspect=fixed;sketch=0;html=1;dashed=0;whitespace=wrap;verticalLabelPosition=bottom;verticalAlign=top;fillColor=#2875E2;strokeColor=#ffffff;points=[[0.005,0.63,0],[0.1,0.2,0],[0.9,0.2,0],[0.5,0,0],[0.995,0.63,0],[0.72,0.99,0],[0.5,1,0],[0.28,0.99,0]];shape=mxgraph.kubernetes.icon2;prIcon=node" vertex="1" parent="1">
          <mxGeometry x="576.51" y="180" width="76.98" height="73.9" as="geometry" />
        </mxCell>
        <mxCell id="UnMHtWUnDYg4pS29dPat-17" value="" style="rounded=0;whiteSpace=wrap;html=1;fillColor=#CCFFFF;" vertex="1" parent="1">
          <mxGeometry x="450" y="330" width="340" height="120" as="geometry" />
        </mxCell>
        <mxCell id="UnMHtWUnDYg4pS29dPat-18" value="" style="aspect=fixed;sketch=0;html=1;dashed=0;whitespace=wrap;verticalLabelPosition=bottom;verticalAlign=top;fillColor=#2875E2;strokeColor=#ffffff;points=[[0.005,0.63,0],[0.1,0.2,0],[0.9,0.2,0],[0.5,0,0],[0.995,0.63,0],[0.72,0.99,0],[0.5,1,0],[0.28,0.99,0]];shape=mxgraph.kubernetes.icon2;prIcon=pod" vertex="1" parent="1">
          <mxGeometry x="470" y="366" width="50" height="48" as="geometry" />
        </mxCell>
        <mxCell id="UnMHtWUnDYg4pS29dPat-19" value="" style="aspect=fixed;sketch=0;html=1;dashed=0;whitespace=wrap;verticalLabelPosition=bottom;verticalAlign=top;fillColor=#2875E2;strokeColor=#ffffff;points=[[0.005,0.63,0],[0.1,0.2,0],[0.9,0.2,0],[0.5,0,0],[0.995,0.63,0],[0.72,0.99,0],[0.5,1,0],[0.28,0.99,0]];shape=mxgraph.kubernetes.icon2;prIcon=pod" vertex="1" parent="1">
          <mxGeometry x="470" y="366" width="50" height="48" as="geometry" />
        </mxCell>
        <mxCell id="UnMHtWUnDYg4pS29dPat-20" value="" style="aspect=fixed;sketch=0;html=1;dashed=0;whitespace=wrap;verticalLabelPosition=bottom;verticalAlign=top;fillColor=#2875E2;strokeColor=#ffffff;points=[[0.005,0.63,0],[0.1,0.2,0],[0.9,0.2,0],[0.5,0,0],[0.995,0.63,0],[0.72,0.99,0],[0.5,1,0],[0.28,0.99,0]];shape=mxgraph.kubernetes.icon2;prIcon=pod" vertex="1" parent="1">
          <mxGeometry x="595" y="366" width="50" height="48" as="geometry" />
        </mxCell>
        <mxCell id="UnMHtWUnDYg4pS29dPat-21" value="" style="aspect=fixed;sketch=0;html=1;dashed=0;whitespace=wrap;verticalLabelPosition=bottom;verticalAlign=top;fillColor=#2875E2;strokeColor=#ffffff;points=[[0.005,0.63,0],[0.1,0.2,0],[0.9,0.2,0],[0.5,0,0],[0.995,0.63,0],[0.72,0.99,0],[0.5,1,0],[0.28,0.99,0]];shape=mxgraph.kubernetes.icon2;prIcon=pod" vertex="1" parent="1">
          <mxGeometry x="720" y="366" width="50" height="48" as="geometry" />
        </mxCell>
        <mxCell id="UnMHtWUnDYg4pS29dPat-24" value="" style="edgeStyle=none;rounded=0;orthogonalLoop=1;jettySize=auto;html=1;" edge="1" parent="1" source="UnMHtWUnDYg4pS29dPat-22" target="UnMHtWUnDYg4pS29dPat-23">
          <mxGeometry relative="1" as="geometry" />
        </mxCell>
        <mxCell id="UnMHtWUnDYg4pS29dPat-37" value="" style="edgeStyle=none;rounded=0;orthogonalLoop=1;jettySize=auto;html=1;" edge="1" parent="1" source="UnMHtWUnDYg4pS29dPat-22" target="UnMHtWUnDYg4pS29dPat-32">
          <mxGeometry relative="1" as="geometry">
            <mxPoint x="-107" y="387" as="targetPoint" />
            <Array as="points">
              <mxPoint x="-80" y="387" />
              <mxPoint x="-80" y="70" />
            </Array>
          </mxGeometry>
        </mxCell>
        <mxCell id="UnMHtWUnDYg4pS29dPat-22" value="" style="image;sketch=0;aspect=fixed;html=1;points=[];align=center;fontSize=12;image=img/lib/mscae/Azure_Pipelines.svg;" vertex="1" parent="1">
          <mxGeometry x="-40" y="360" width="54" height="54" as="geometry" />
        </mxCell>
        <mxCell id="UnMHtWUnDYg4pS29dPat-23" value="" style="image;aspect=fixed;html=1;points=[];align=center;fontSize=12;image=img/lib/azure2/containers/Container_Registries.svg;" vertex="1" parent="1">
          <mxGeometry x="150" y="359.5" width="68" height="61" as="geometry" />
        </mxCell>
        <mxCell id="UnMHtWUnDYg4pS29dPat-30" value="" style="verticalLabelPosition=bottom;html=1;verticalAlign=top;align=center;strokeColor=none;fillColor=#00BEF2;shape=mxgraph.azure.azure_instance;" vertex="1" parent="1">
          <mxGeometry x="960" y="-20" width="50" height="50" as="geometry" />
        </mxCell>
        <mxCell id="UnMHtWUnDYg4pS29dPat-35" value="" style="edgeStyle=none;rounded=0;orthogonalLoop=1;jettySize=auto;html=1;entryX=0.072;entryY=0.713;entryDx=0;entryDy=0;entryPerimeter=0;" edge="1" parent="1" source="UnMHtWUnDYg4pS29dPat-32" target="UnMHtWUnDYg4pS29dPat-11">
          <mxGeometry relative="1" as="geometry">
            <mxPoint x="520" y="71" as="targetPoint" />
          </mxGeometry>
        </mxCell>
        <mxCell id="UnMHtWUnDYg4pS29dPat-32" value="" style="shape=image;verticalLabelPosition=bottom;labelBackgroundColor=default;verticalAlign=top;aspect=fixed;imageAspect=0;image=data:image/png,iVBORw0KGgoAAAANSUhEUgAAAJcAAACaCAYAAACkAdqnAAAAAXNSR0IArs4c6QAAAARnQU1BAACxjwv8YQUAAAAJcEhZcwAAFiUAABYlAUlSJPAAACS7SURBVHhe7Z0HdFVVusf/t6cnhFBCDyAivQgIKCBIsyCiqAji4OhydNYbdTlFn2t8zrwZZ956jrPmjbpGRsWGiAUQpBeFiEoAAwrSS4AQIKS328/7vr3v4Z5bEhLITW5yz2+tm5yyT9v7v7/v23ufYlAI6OhEAKPvv45Oo6OLSydi6OLSiRi6uHQihi4unYihi0snYuji0okYurh0IkbUiIu7cl1OL9weRUzrtHyiRlxOpxvbt5bi8OFq1Ni9vqU6LZmoEVeVw4vvtxqx8L88+OStMpw4Vg23WxdZSyZqxBVvNcLrBuzVQM5mE975Xxc+X1qOM2drfCl0WhpRIy6HyytiLUXxoLrSg7N5wNerjFi20IOtG6pRcNHhS6nTUoiauyKqatx4+ZkanDrmhsfj8S01ID7BhDbtTOiUZcDQG8wYNMaM5ASzb71ONBMVlkvxemGmM7HYFBiMrHVuMbIl86Cm2o2CUy7s2+HBpuUurPmoGvv2VlIDQBWgTrQSHW7RYIDDrZC4vDAGnRGLzOv1wF7jwqmjLnyzzo21H9Hv4xocPVoNF7lTnegkKsRlIHEFI5epy6Ulc7vdKCtWcHC3gawYCewTJ3ZlO5Gf74TDqYss2ogOy0UYQ/XFBi0EdpUealZWliv4fguwbqkTG1Y4sOc7JwovuEUnrE50EDXiYreobVpwOyO0rSHVxgLzel30c+LUcQ+yP/di1XtOZK934NghB8rL3LROF1lzEzXiMpFuwhgqH7zGENZ9SpG5cDbPi83LnFj5fhV2bKtGPjUCqmv0oL85iRpx2SzGsG7QYODlvELGXeHg5R6yYlUVHhzYZcLyNxUsfbMKe3OrUV7qhVMP+puFqBFXDQXk4TyZ7JKonzg4nVdxw16t4ECOCZ/8A1hOluzA4Ro47Aqt011lUxI14kq0GcMG9YEYYDSafNN08kbuTA3cSLVibo8dxUVObFsFLHzeiyWvV+JiqVMXWBMSNeLigetwlku6RfU0yfp4/XGUlwcjaVltyJalQ3TE7vgSeO35aqxbUYySYhKZHvBHnKgRFw9cV5Wa4XaFWqLLuUWDweSLy0IRlszjRk2NA/knFKz/0IwV7zhRdF6PwyJNVIjL6/UKl5iQ7IHJLC2KP5APj9Y9SgH6LRFv57d2jGwMkMZQWWZEebECNxs9gm/r8bTSvjG2zjxM1lyjGFEhLlVEUlhSKPInFocRixSUn0Bx8HZ+sfm3ZTcZnPbgHje2b67CsWPVqHG0nq6Lskq6rt0FWLnxKApLnGL8tqmJGnE5XCQm3zQLQopACkHqRKzVCEWu0yJFGLht4HSoJSwu9GLXVx6s/sCFbeurkV9gb7E3KXKeVFZ58P3BUixZfgJL3j+OnG9LUFbm4szxpWo6okJcjP/aWSC+yUtIS+YXiSTYmjF+zdUtRC0lhUbszzFg60ov1ixxInuDHReptrckPB4v9h8vxmcrj+PDD45i/epTOPBjGWrKKScu3wyPCFEjrjBGxYdqjSThgnvV2oUTYH1xORWcy1OQs0nBhk9d2LjCiX27nCiv9GgEG33wNZ/Os2Pbd2ew7PMTWLHiJHZvP4/S83aZgLKmeaQVReLikMBpN4r/WqSuArNHFZtfaNr1PM0/GcTXF4ViPY/XRa1VD86fBr761I3VSxz4dosdB/e6UFPNsaAvcRTA51JS7sKO3HwsX34Siz88gm82k6guBFpcFl9zdbtEhbg4A+IsBridZH28qlCkSHhdqEgCT1uulxnIutNaOsY/f7lMlv1oXsUFu92Fwz96sPYDB1a8a0fuNw6cP+eEw9G8IvOQUCqq3DhwohzrNubjjUX7sWrtMRz7yQ5HtS+RBr52k5muvxlOOmrERSEDElO0XRHBsZd/Rrb6tGjXBYuR18nLDBejhaJur8DtcaKsRMGR/V4sXejA+s+rsH+PHUUX3XC5m7aweGSh2u7GqfwqfPX1Bbyx+AgWvrofJ/e5qVL6EoWBW4kep4virqYv6qgQl5Eu3EEtNK315gJmoTBSaAFKI/zzLJrQ9SosFilGtkqie6y2pGHgbRTFjYoSA7Yt46eSnFhHIjt5wonqKq4UkRcZPyx8sciBnfuK8NbSY3jlr7n4Ycs539q6MZvdSIz3xV9NTFSIi4m31D62GM41BnaisgACC1kK0p9GJaWNGyZT7YIItx0LjIeROCarLDfgy4+NeJ9E9tXaapw/T1aMGgORgGMlds8HD5RjyUdH8cYbu7F99Rnf2vrhdFpQVpnom2taokZcVbXcFVEbclwxEGnB5CVJQYZ2ipZeNMPjrt101bYdw8s9HhaZE2dOerH2QzcW/bUKm1bUROSBkYJCB95bfhB/+vs3+HxZHgqORt5KNiZRIS6vx4NEa3jLpRUM+zOtxWLkvNxQutJAC6cl3F0UV4IUmROVFS6cPAys/8SN1/67HN9sLRHXcjXwUFhhkRNLNpzBH/6Si+Xv5+PiGRa8L0EDMVsNSEhunkfxokJcRpMJNa763M/FrblA8cj50A2lewu8PHlHRWjaUFGGd6mByALn3vyKci8O7zFh1bsmLH+vBrk/lNHyhquBrd/6nAv475dy8fHCgzhxoBT2Gmq9XoVePS5yrVWNb1XrQ1SIi7GZpeWShVrXaQUXmn9eWjnVinHhB6YNFpuKFKLWovG2Umxakcnt/ek4jYjHPC7U1Dhx/owLX69T8OmrBqz6oAZ5eU64qHAvh9PhwbfZpXjt3d346O1DOLivGKUUwLsb4YkmzoKY7udirBYDeg9SkJhCJ2UwCxfmL/BAK1SbVZGC8s0IgjO1tsLi42jFxajb+reRYg3epxQxC42fFC8hl5Z/nES23o2PXnUhe1MlzhbY4QozXsmPw/10rAwLF+/BO+8dwFfri3DmeKVoHTYWFosbSQnN876NqBGXyWTEqPEJmPGQFcNuNCElja0QC0wVkrZQAwvYb1HCFb5fmCwCvq0nKGwLIlDIgdbPPx1q7SSy5epBUaELh/a4sGW5B6sXO7Hru2qU8gAywc9f5p0tw7KNZ7DozUPYuPYcDh8tRnkRWcJG9mBer5GEHcMxF8MFldnZhhtutmLabBsmzjJjwA0mtGkbeop+l6Wuq6vQA8Xm9XCvv2/GhxBQQMyl3V99sihQkAwLjO/n5xsUv9+mYNtqF04cko+8lZd5sDunFCuXnSTRFaL8om+jiGCC12CT19jERI24VOKsJvTuZ8GEO+Iw7R4rxkwzIau/EXHxJuEuwxW2zLjgzPOLTBus26uNgToKITRW0yL3qQ5LhU+nniMfl0XmIK909qgBRWc5RlNQVangzDEnzh2vEOkiCp1uqH1tGqJOXCqpSWb0HUAW7M44TCVLNvwmMzr3ZJGxu5S3NWtFoxJY6P5sDbRmgUi9cFaEpvFbSXVduP3ImMuPP40QGN8AGSL+pkHxuqF47HVef6SIWnExJpMBbdOtGDU2EXctsGHSLOC6YSakZ1hhiwt33zzPq8uCC9zfkgxGilEJWR84L/ct98np5bwf/zRbq0AoffNoixpGHpjNzfNus6gWl4rRaEAGCWrsxGTMfDgeY6cY0WugAWnp1KrkR7V9BctiqF1AHloX/nLVbfxiVPfhT+8XlSTwWMHHDT4Hmteup90qdQxBNSYerxUOFzXBa3HhkaRFiEtAhWOleKx7dyvu+lkC7nyMxDbVgnadDGTFjCRAiqWES9Raq0BqG7jWulIpGpktoRbIDx/Hf6zA4/K5aBHrNOu9FgXuhNrPszFh68/54w8Vmo6WIy4NbMmu6RqHGfPi8MAzFvS73ojkVAssVktAwUqhBPY7hBu4ZjH5BcVCCRWVdpjpcsiRgNoxOgywVNTZH9JoeNxeasS4Y/eWmyuBh4xsNjMGD0jFY8+m4IGnQCLzIDHJApPRJsQSTiiXG7iuDe3QkVaM4QSs0hBBRgqOtxITSnxzTUuLFZcKhzJxFNwPH5mMe3+RjGlzqFWZJQUge/mvzkLIwe5AtC4xUMCBA+uqII2idevPaoutAvEpBb65yOJ221BVneaba1pavLgYFpjFakRmRwsmTIvH3KdtuH2BGVl9+PK8lwQWfEeFiioWbbylonVx0mLVZYlCB9YZFp8qRsbtTICjKsM31zA8Jgeqks765i6PyWyELcEi7khtalqFuFQ4eE1KoZbkNTZMmEJB/wIrxs0yUpylWhQWRqg4pKhq6xj1z4dbHyrI0HiO/vjmJIpigtdj8c01DKPXgjh7um/u8vDT5C67rDhNTasSl4rFbEB6WzOuHWjDtDuTcP8v4jBikoLUNiHlLAgUDf8PtWASmUZrwYIFF7odr/OvZ66mtWhQjDC543xzl8dkcFF+VIS/8AjTIHEVl7tQ1ULe1sd5GWczIbOTDcNvJJHdk4gpc2zo3Z9jHl8iH6r18dfuUEFI0WgFJSZ9BKYNJLRQDaQrY+iNtBHBS2L0XKGVvFoaJK5zRXasy7mAtTvO4/SFlvHZFNaLjUSW1SseN94Sh+n32TBinIXcp7/QpVACBaJao0BLpKbh/+q0dKkq2thK4t8vP/nMSQ0ectPOurPeaa2ApzF61g3UIDHFX7qepqRB4qq0u5H9YxGWbM7Hp1+dxabdhcg7F+ZhuSiECzUl2YTBo6wYOtYaIK5AAsWiohWNXK9NE5peFWWwleOUJgrKzbZKuaA22LwFCb42nLZyeGsxhSYKNbmx0xxc0VELyIKtIev11uo8LNtWgK9JcC1FZIyZWlCqgNLbG5DZ3UjxmEkUQrBwQi0RIy2QhMUj04QTpRbFS61J0ovByCMFdb+LwupIrXds5eF9GQKFaI0HOnaOQ1b3VCQlhG8lRxrDzoMl9baXh05X4svciyFC4m/xjB2Qjikj26NPlyRY+eW5vnXRDr826ciPbvyY48SJI26cO6mgskJ9P4Q2a/iKgrNKvUpeLi1eODFyX1lyqgEz5lkx4fZ4FOQ7sfzT01j+xWFfisYlKc2M3tdRI2Zoe1w/oBuuuZaURjS0l54f/C0oqsGF0it7KYvh8Vf21ltcVeQWSypcIe+xMpsMaJNsQVanBDx9dy+kp1phvEwtjjZK6bqO/OTED9le7Mt1obJE9nG5xc2jfMeEySccf3apVq4266amNRqtSE4DZsy1SHEVOLHss1NY8fkRsb6xSEwxIy3VggEj0jD5lkwM6p0OS3DrpQFUVLux5rtz2Lq32LekYTToq2U7DpSIeGv/iXLhFswmo3jdZId0G6aOaI9xg9silUwwD820FJxOfuOgQq7SALPFgNIyJ77fWYPvViuoqVZw7hT3coc+dHs5uF9NfTKJhZmSxpbLJsSVf9GBT1fm4Yslx2Tiq8RsJWElWDFqSgZundgBfXu0pUbMlYuqsai3nZQ9vJRR9JcHjpPIFQ7ISsLDt3bDS4/2w503ZpL1IovVgoTFHNxXjY1rinHgxyqyUgrVfBtunpSKJ15IxA1TvejYleIXam2aTP4HRmS3RXDWhR/6CUdjDVzz4SwUgvQabMavftsfv5zXH4P6ZEaFsJgGWa4cslwrthdQximYOLQdru+bhrREi2xi+9K0NLLX2rFphXxwYvhEYPA4M7pnctNd9m7z68XXvufE0Z/cKCxQ4KLwg91geFcYClstFmVyKrlFn+VqjJiLtI6eQw2YMmwwJk1uS5bRSsfh44Vv7TYHDRLXuYtOVNS4kJxoQpskqwzcW6qqfGwjcW1c5sL5M2QFqHGW0RG4fpwJIydb0CHDIioSfxr58Ikq7PnSi73bPSgt9rcQmWChcQCvfd1AsFu8eLEIq1YewIdLruweeo6tJs3ugPsmdSFLm4Z4viuXKni00aDmQ0YbC3pkJqAdBez8nGFLF5YWt8eL6ko3zp70YOsqN5a+XoVvt5WKNyHHJxpw3bUJmDEnAXc/YUK/kUB6O4o3E1VhcV4Eu8TaEQPX1W19c/UnrZ0B0+9Lxcv/MwTz7+iLjh3aIIHCk2gUFtMgcXGrkMft+BnDaDG9jYV0dW4SE7WIi7w4uNuIL94zYNErVdj7g7Qw6RkmDB2RgNkLEjH9ATN6DSArkkwNGGriB2ZHoDMQ8ZkmgYcsvpOsTX1JJh2OnZyOJ345BHNnDUSfPhlomxoXEONFIw0SV2uHIwQWmfgoQpULBacU7P1WwcpFXmz8zI7DR+2iMdOtpxUjb0rArfcnYuJMG7r1MpHIpPXSBvpymkVFYtPozUCG7XLDP0xqe2DEDW0x775+mH9/X4wZ2QGd26dGvahUYlpcItwME3KywLwKf9ORP1LlwYl9Hmxb48aqd93Y8rkTJ4+7YYs3ok+/OIybFodb58Rh5FQTumZJcfkFxvtmwcr/KmJsMehLIcH06JeIO2Z2wZz7sjCZYqs+PdsgMb5liEolpsUlqb2Qpcjc4ldY4Mb+HRyPubBpuR27t9eguNCJjPYmDBltxc23xWHqPTZqbULcU8Y/tnJa1IFrxazAYwvf2swakITb78zE/SSqWyf3xOCBGWiT3jx3NVwturjqQOviLonsvBu52R5sWubE5pUO7N1pRxVZt65dbBh5s1VYsYkzrOg7zICUNkaYzepT4n6hkS0L0DSvTusAjBufintmd8O8eb1xy9guyMxIbnH9hlp0cWnc1eUQlky4Si/yDhnJiin4YokD32y2I++YS3wFpE/vBNwxNx4Tbqe4bJIZXXtaEBcnO2DFwDX9DOQSTXaj6KtK70CWb2gGbp3RCT//eU9MHt0FHTJSqNHUckWlYnqR8E3HHGw88o56cPygV3xRlsUjUc1KsPDkcn48n/96KHYqLTTi9BGFXKQHdo8HcRYT4hIN6MR3JPQzIYGmxZ0QBgVZfU3o3tuCahLnydOVqHRVY9ykDNw941pMGdcVaWmtQ1QqDepEbW3wkFb2Ogc2LnfhzEl+Aw13fHJcxI+lqX1VLCiZRdK9qQG6H15uNFpgizOg/3ADRt9mRs8sC5JTTWLMsqSc4rUcF9LbGnHtIAvKeP5YKarddtw8rDPMpKeW7P5qI6bFxXAP/YbPHCQul8Zy+Qnuba8dObZoovRpGR4Mn+jB6PFJaJ9JbpFalsHBvRYe4A5+Srs1oMdcBFsebQ+7lnDCkumDs47jKf74gQMlhWZsWmrD/71Qgw1ry1BY6CIX6ksWhtYoLEYXV1gC73AIhi1cOCsn4S9v1FCc5UJZkQlrFlnw8q+rsWVdFSoq6x4Wam3EtLjEbURhowK2QqFCUO9wCEbeiRAoRrZibrJi/NLc0kITNn/iRu52mm+h33K8EmJaXPK2X3knaW2WSGvBZDp/cK+6Rl4WfnsWqZNcohc1VQqcNbEV3upukQyRsDw84VugjacCReMXhxSUViyq6AItGHeYKmj4naytAV1cAqEw3zSLIFBEKlJ04dP5CbVgch/h0rZuYlpcotDDWJRQQanUJhC/tVO31W4npsPEaq2dmBaXRL6AJJzIglEtkAzqGyKWy++7NRLT4hIiERqhwudJjXVRp9WYS7uOkbNssXgiNKDXztdXvK0N3XIRUiDqj9FOq/iXsVj4pwpMJZw4YxldXIQUi7Y7ojZLFGh91O0kLCZtdvqnY1VourgIDrgDA3etGGqbDoaF5u941U4bKJsD9x8b6OIKgq2MVgjaTlQpQimwUEHWDt8yHWwJY4GYFhcP/4hgW4N0dX6rox24lu82lelZLKGC4TFJ/wt6pTBj0yUyMS0uHv5hSyRFc2WDytLSqdZN3hmhUtcj/bFAzFsuUpUQR7gvogW6RL8V0rrEYEsXDG+nB/QxiDpwLWdCBaB97be2tRjeJUpCxhY128UaMS0uJvMaoO8IoH0mCyM4SNeKIrxAghsAoWOLbNl8kzFGzIurc1cLbppiw5T7TRg4BkhM4sfzLZcEE2yJ5HK/lZPC8atHDfgDBRebxHwOJMSZ0KWbBdffaMP02fGYMtuCvkMVJCZLKxYaLwWbIbZMvCzYgvkRy2Mw7tKrF8EPT6QkW3BtvzjcfDtZsXtsuGGKBZ27m5GQxOsDA3gWlHSHWsEEiq62mCyW0MWlQYgs1YKBwxMw+a44TJ4Vh6ETjOhEIuM3+F3O1QULShWfWB6DgZcurjDwq6I6drRg3HQbJs+24uY7rOgzlISXzo/ny5eNsFbU+Ipdoha/ReP/getiCV1cdSBel9QxTojszoctGDXRjG7X8Gu/5cOuLBwWWmhcprpQaclCVscIurguA/eF8eeP+/ROwr0/T8SsR4wYNg5o39mE+AR+Ea/2VeFSRdpOVelKY1NdurgagMViwsAhyZi5IBnT58Sh/3Az0jsYYCHxsfUK93Crdjwy1tDFdQW0STFj3OR4zHkyDtPnW9BngKVVvuvhatHFdRW0TbNi7E2JmPMfFtz+cxJdBgX8Jn5XqbwzQr8rQueK4UDdZjOK1yVNmZ6KX74Yj4mznUhvz++Jj21hMbq4GgHx+eNkE7r3smHazFTc/x/xGHqDBe0yDdQYMIoPqIvXB8YYurgaEe6eSM+wYMAQG2Y+lIBp880YPEa+pysWbVjMv58rkpRVOHHhtILc7+w4e1LByHE2jJxgIxHGRp3WxRVBOGv5HaiF5124eM4rPpLQobNZfCQiFtDF1UTwR6pIbqLXP7RHv3Wii0snYugBvU7E0MWlEzF0celEDF1cOhFDF5dOxNDFpRMxdHHpRAxdXDoRQxeXTsTQxaUTMXRx6UQMXVw6EUMXl07EaJV3RTicDhScLcDx48dRVVWFpKQkDL9+OFKSU3wpdJqCeomLC+jo0aOorKz0LQmFn9lr06YNrr322ma/X+nQoUN455138MEHi1FQcBa9e/fG0qVLMWjQoKi/l+rixYsoLCxEeXk53G43bDYb0tLS0K5dO6SmpvpStRBYXJfj+++/V4YNGybvdqvlFx8fr8ycOVNxuVy+rZqPN954Q0lPT1fi4uKUrl27KWPHjlV2796teL1eX4rog4SknDp1Svn73/+uTJgwQUlOThH52rFjR+Xuu+9Rli1bpjgcDl/qlkG9Yi7+YjzXmrZt24ofCUksN5vNSE5OFsuoMMV0c8OvmiwrL0NxcTEGDhyExYsXY9WqVejZs2fUWi0+54KCAsyb9yCeffZZfPfdd+KOVc5TEhTWrl2Dd999F8eOHfNt0TKol7jYnWzevFmYa/4988wzYvnAgQPx1ltviWWnT58WGcCCa07Onz+Pc+fOiWl+I01KSrJw1+xaopXq6mq89NJLyMnZIcS0YMECfPnll8jPzwdZXLzwwgsi3Ghx+CxYg/j9738vTPbQoUOVjz/+2LdUES5x8+Ytyl13zSJ31FWhOEEZMWKk8s9//lM5c+aMSHPw4EHlySefVAYPHixcAE936NBBefDB+ZQmX3nxxReVfv36KU8//bSYHj16tDJt2jRl+fLlysZNG5X58x8SLpr3zb+bbrpJefvtRQqJStmyZYty5513ChfN52exWBQSljJy5EhxbObNN98U59ejR5bYnvf1m9/8Rtm5c6cvhSKm+ZyoUikbNmwUbqpTp07Khx9+qOzctVOZO3euMn78BOXll/+m/PWv/6P0799f6dKlizJlyhRl5cqVSl5ensgjivXEMRYseFjJzd3j23sgTqdT2bNnjzhnsqzKLbfcQmlzRV6yG2d3STGvQvGumGbIKtOxX6a0k8ltZopjjBkzVvnzn/+sHDlyRKRhPvjgA3HenH+LF38oyqt9+/bKN998I1xsTs5O5Re/eFwh4Yp99O8/QHn22ecUill9e7g6Gk1cnAGfffaZkpWVpSQkJIqM4jRWq1Vc0HPPPaeQdVP27dunPPzwwwoFqiItWRSRbuLEicrJkyeVX//616JgOdbIzMwU2w8fPlx55ZVXlN/97ncUiyQL0fA2/OP9cNqF//63smLFCmXq1KmX1qk/LuSamhrlj3/8o9K9e3clMTFRoQaIWKcKcMaMGcr69evFtXDmq+tY6GrBv/7668rXX3+t3H777eK4XCAZGRkKWWuxntOxyDhfKFRQKJwQ++Fzfuyxx5S9e/eK/WupqKhQ3nvvvUvn+re/vaJcuFDoWxsKC/epp54Sx+aY0p/PNnEunLe7du0Saf9NecLrqbWsXHPNNeJ6+LrXrl0rfuPHj1dSUlIvnSdfB+fFvffe2ygCa7R+rtLSUvzpT38CCQTz5z8o4px169aBLhZ0USKOIGH5UgNUY8U28+fPx1dffQUSn4jdVC5cuACyOMLtkrAwbtw4kMhETEIWBNu2bcOaNWuEa+b46ntyHyQykBXCrFmzxD4GDBiARYsWgQoPBw4cAAX6wn2TOECVAiQmPPHEL8l1pgo39MUXXwgXpeLxeECFj1dffRUfffQRbr311ktxJbsvjkP5+nhfz/3ncyABC1d24sQJUEUAVTbcfffdIlSgRpFYHgxZKHFOKiQaWK0W31wg3GrftXuXiCO55c7uc+PGjRSTrQUJQqShCgaqAOL8GCpjcQw+V7Jk4jpGjBiBf/3rX8LlTpo0UeQP7+f5559Hhw4d8cMPP4h9XC2NEiDZ7Xb89NNPQjx8MdnZ2SLDqNaIDGURcSzEQSu5S7EN1TSQO8GvfvUrEWzzPrjZrTJ48BAqmHtAbk4s52Y5Fyzvl1wv7e+cyDRqYQkRcMZTTRYCI4sn9sHpyYqI/b///vvi+JyGC4XFyqLnWCwv76QoFLIK4jxVbLY4kNsAWTUkJCSIbbXio1YoHn/8cXTo2AGJSYl46c8v0XVZhbjvu+8+kMUW50sWSxybK0EwnF+qEBh+ppHzLRxFxUXYvWs3ioqKQO4OFDqIa+MGgdlipgr0kxAMX4f2WJwfjzzyqKhUfDwKUURZcZ7xuXEF4uvjc+R85QYb9xFeLY1iubjgS0pKRGEz+/fvx+rVq4Ul4Gm+CLom8VPh2tmlS1f06tVLZCZfkPb9Vl27dkFWVg8hEC4wFihbQ+67+uSTT0AxmNg/WzgWV13w+XGjg+HCIBchjscWhQXeo0cPsY7Pn62PCjcIRo0aSZYtRWR+8Pu3WDy8bXxcPJISk8Qybln36dMH5KKEGLnFx5WD+6/KyspEGi3qtdcHp8Mp8pnzg4/B18HH40rC1oiPybBYtYLlPBwyZLC4BgoJxD54PQuNRbRp0yZQrAiKNcU6bTldDY3mFrU88cQTwkX+5S9/ufTjFubIkSN8KWSnq81m9c2FwgXPGafCmbBw4UIcOnQQY8aMFq0r3i+7zvoWDsPumDNVhYXn9vi/16OFC54LrjZL0hDYMmsLXIWF0oMqkQq7b66MdcGWKnhfXDF4eTjU6wgHu+0//OEPAWXF7nHatOm+FFdOo4iLhaBt6nMc9Oijj+K3v/0tHn/icVCwTjXtGlGLrxTusT58+LCofRz7cEzz0EMPCesRbFGCYZGq8Ry7UY5/2BWw0Hj66JGjIo3al9eUsFXjrh62gHwdbI05nlQtcmVVpXBd3377rTjn1NQ0ISSubGxpuHKw0LK3ZQuXziLifK6rN5/XqxWXPcf9998PakiJEOWOO+5A3759yZV2FOuvhkaJuUTto8xhF8OxF8c3bF6p1YfikmLk7MgRJnvevHl1XnRdsIvhYJctALWGRKFwPMcZr3Vl4eDYaejQYeIc2D29/fbbIu5goWZnfy0C2G7dugnXwufcGPFGfeGK2aN7D8x5YA5ef+11cT3SQh8ScRWLa0/uHuGaH3jgAdFIYYFxTPXyyy/jlltuEQLjxs2pU6eFMIYMGSL69mqDWrSirDhU4EYXW3J2sZyPP/74I7nvciqruUJ4V8MViYtrGCtf+5+DxieffAqvv/4aDh48hB07doial5CQSJmUKYJcrjFqfMSmmjO2NtT9qnTu3FkE1qtWfSFakPzjlg3HENqGgMFogNH3og8+Bu+H3e/QoUNEkM1Wga3Ahg0bhBvheITPnRsOt912m9hOS23nGHx+2uvRulJOp54H/8LB5//II4/gzOkzyMnJEUH51q1bRV6plequu+4SeSCnZ2L79u3CynH8yeJgz8GiYWs+atQo354l6vFVuFJxgM/7ZzH/4x//EFacz4M9wfjx40Ulu1pMLxK+6XrD3Q1cc6677jrR6uIWIFuvwYMHiQxgS5GQEC8Kbdiw4Zg79wFherl2cDzBVoNr2+jRY+g32rdXCbs+TsO1Txukcubx8Vwut8hMzkgW29SpU6mQDejXrx8da5io4fln8kUDgN3N5MmThbXkgr/xxhuFNeBpVVRcEA8+OF8Ir3dvWVM58M7NzRXW+J7Z9whXqQqJz40tGxfWhAkTRPcIwy6LrTZfP58TB9x8HM4nboXxOUyaNElYnmB432xp2ArxeXGF4fTc8uVrmDlzJmbPni166Xk5nzMXPucDb8fH5HJgwcyYcYe4Lobzmcuq/4D+mDZ9WkDoct11fUW58R0jqoD53PhYP/vZzy5d19Wgv4hEJ2LUHQnr6FwFurh0IoYuLp2IoYtLJ2Lo4tKJGLq4dCKGLi6diKGLSydi6OLSiRi6uCLE8bNVcLrD3wITK+jiihDLswtQXhX+PrFYQRdXhPj2pxLUOOq+Q7a1o4tLJ2Lo4tKJGLq4dCKGLi6dCAH8P6//TUdCCzoTAAAAAElFTkSuQmCC;" vertex="1" parent="1">
          <mxGeometry x="351.95" y="20" width="98.05" height="100" as="geometry" />
        </mxCell>
        <mxCell id="UnMHtWUnDYg4pS29dPat-41" value="" style="edgeStyle=none;rounded=0;orthogonalLoop=1;jettySize=auto;html=1;entryX=0.347;entryY=0.978;entryDx=0;entryDy=0;entryPerimeter=0;" edge="1" parent="1" source="UnMHtWUnDYg4pS29dPat-39" target="UnMHtWUnDYg4pS29dPat-22">
          <mxGeometry relative="1" as="geometry">
            <mxPoint x="-23" y="460" as="targetPoint" />
          </mxGeometry>
        </mxCell>
        <mxCell id="UnMHtWUnDYg4pS29dPat-78" value="" style="edgeStyle=none;rounded=0;orthogonalLoop=1;jettySize=auto;html=1;entryX=0.01;entryY=0.596;entryDx=0;entryDy=0;entryPerimeter=0;" edge="1" parent="1" source="UnMHtWUnDYg4pS29dPat-39" target="UnMHtWUnDYg4pS29dPat-77">
          <mxGeometry relative="1" as="geometry">
            <mxPoint x="60" y="588" as="targetPoint" />
          </mxGeometry>
        </mxCell>
        <mxCell id="UnMHtWUnDYg4pS29dPat-39" value="" style="dashed=0;outlineConnect=0;html=1;align=center;labelPosition=center;verticalLabelPosition=bottom;verticalAlign=top;shape=mxgraph.weblogos.github" vertex="1" parent="1">
          <mxGeometry x="-61" y="550" width="75" height="75" as="geometry" />
        </mxCell>
        <mxCell id="UnMHtWUnDYg4pS29dPat-48" value="" style="edgeStyle=none;rounded=0;orthogonalLoop=1;jettySize=auto;html=1;" edge="1" parent="1" source="UnMHtWUnDYg4pS29dPat-43" target="UnMHtWUnDYg4pS29dPat-47">
          <mxGeometry relative="1" as="geometry" />
        </mxCell>
        <mxCell id="UnMHtWUnDYg4pS29dPat-72" value="" style="edgeStyle=none;rounded=0;orthogonalLoop=1;jettySize=auto;html=1;" edge="1" parent="1" source="UnMHtWUnDYg4pS29dPat-43">
          <mxGeometry relative="1" as="geometry">
            <mxPoint x="810" y="330" as="targetPoint" />
          </mxGeometry>
        </mxCell>
        <mxCell id="UnMHtWUnDYg4pS29dPat-43" value="" style="rounded=0;whiteSpace=wrap;html=1;fillColor=#E5CCFF;" vertex="1" parent="1">
          <mxGeometry x="905.76" y="200" width="140" height="260" as="geometry" />
        </mxCell>
        <mxCell id="UnMHtWUnDYg4pS29dPat-44" value="" style="image;aspect=fixed;html=1;points=[];align=center;fontSize=12;image=img/lib/azure2/other/Grafana.svg;" vertex="1" parent="1">
          <mxGeometry x="939.92" y="355" width="90.16" height="70" as="geometry" />
        </mxCell>
        <mxCell id="UnMHtWUnDYg4pS29dPat-45" style="edgeStyle=none;rounded=0;orthogonalLoop=1;jettySize=auto;html=1;exitX=0.5;exitY=0;exitDx=0;exitDy=0;" edge="1" parent="1" source="UnMHtWUnDYg4pS29dPat-43" target="UnMHtWUnDYg4pS29dPat-43">
          <mxGeometry relative="1" as="geometry" />
        </mxCell>
        <mxCell id="UnMHtWUnDYg4pS29dPat-46" value="" style="sketch=0;points=[[0,0,0],[0.25,0,0],[0.5,0,0],[0.75,0,0],[1,0,0],[0,1,0],[0.25,1,0],[0.5,1,0],[0.75,1,0],[1,1,0],[0,0.25,0],[0,0.5,0],[0,0.75,0],[1,0.25,0],[1,0.5,0],[1,0.75,0]];points=[[0,0,0],[0.25,0,0],[0.5,0,0],[0.75,0,0],[1,0,0],[0,1,0],[0.25,1,0],[0.5,1,0],[0.75,1,0],[1,1,0],[0,0.25,0],[0,0.5,0],[0,0.75,0],[1,0.25,0],[1,0.5,0],[1,0.75,0]];outlineConnect=0;fontColor=#232F3E;fillColor=#E7157B;strokeColor=#ffffff;dashed=0;verticalLabelPosition=bottom;verticalAlign=top;align=center;html=1;fontSize=12;fontStyle=0;aspect=fixed;shape=mxgraph.aws4.resourceIcon;resIcon=mxgraph.aws4.managed_service_for_grafana;" vertex="1" parent="1">
          <mxGeometry x="939.9200000000001" y="220" width="78" height="78" as="geometry" />
        </mxCell>
        <mxCell id="UnMHtWUnDYg4pS29dPat-51" value="" style="edgeStyle=none;rounded=0;orthogonalLoop=1;jettySize=auto;html=1;entryX=0.939;entryY=0.43;entryDx=0;entryDy=0;entryPerimeter=0;" edge="1" parent="1" source="UnMHtWUnDYg4pS29dPat-47">
          <mxGeometry relative="1" as="geometry">
            <mxPoint x="666.3400000000006" y="575.7999999999997" as="targetPoint" />
          </mxGeometry>
        </mxCell>
        <mxCell id="UnMHtWUnDYg4pS29dPat-47" value="" style="verticalLabelPosition=bottom;html=1;verticalAlign=top;align=center;strokeColor=none;fillColor=#00BEF2;shape=mxgraph.azure.azure_alert;" vertex="1" parent="1">
          <mxGeometry x="950.76" y="550" width="59.24" height="60" as="geometry" />
        </mxCell>
        <mxCell id="UnMHtWUnDYg4pS29dPat-52" value="" style="outlineConnect=0;dashed=0;verticalLabelPosition=bottom;verticalAlign=top;align=center;html=1;shape=mxgraph.aws3.users;fillColor=#D2D3D3;gradientColor=none;" vertex="1" parent="1">
          <mxGeometry x="595" y="548.5" width="66" height="61.5" as="geometry" />
        </mxCell>
        <mxCell id="UnMHtWUnDYg4pS29dPat-55" value="&lt;font style=&quot;font-size: 18px;&quot;&gt;GIT HUB/Code Repository&lt;/font&gt;" style="text;strokeColor=none;align=center;fillColor=none;html=1;verticalAlign=middle;whiteSpace=wrap;rounded=0;" vertex="1" parent="1">
          <mxGeometry x="-63.5" y="630" width="83.5" height="50" as="geometry" />
        </mxCell>
        <mxCell id="UnMHtWUnDYg4pS29dPat-56" value="&lt;font style=&quot;font-size: 18px;&quot;&gt;Azure Pipelines&lt;/font&gt;" style="text;strokeColor=none;align=center;fillColor=none;html=1;verticalAlign=middle;whiteSpace=wrap;rounded=0;" vertex="1" parent="1">
          <mxGeometry x="-43.5" y="308.25" width="83.5" height="50" as="geometry" />
        </mxCell>
        <mxCell id="UnMHtWUnDYg4pS29dPat-57" value="&lt;font style=&quot;font-size: 18px;&quot;&gt;Docker Registry&lt;/font&gt;" style="text;strokeColor=none;align=center;fillColor=none;html=1;verticalAlign=middle;whiteSpace=wrap;rounded=0;" vertex="1" parent="1">
          <mxGeometry x="142.25" y="305" width="83.5" height="50" as="geometry" />
        </mxCell>
        <mxCell id="UnMHtWUnDYg4pS29dPat-58" value="&lt;font style=&quot;font-size: 18px;&quot;&gt;Docker Push&lt;/font&gt;" style="text;strokeColor=none;align=center;fillColor=none;html=1;verticalAlign=middle;whiteSpace=wrap;rounded=0;" vertex="1" parent="1">
          <mxGeometry x="30" y="350" width="120" height="50" as="geometry" />
        </mxCell>
        <mxCell id="UnMHtWUnDYg4pS29dPat-59" value="&lt;font style=&quot;font-size: 18px;&quot;&gt;Docker Pull&lt;/font&gt;" style="text;strokeColor=none;align=center;fillColor=none;html=1;verticalAlign=middle;whiteSpace=wrap;rounded=0;" vertex="1" parent="1">
          <mxGeometry x="280" y="355" width="110" height="50" as="geometry" />
        </mxCell>
        <mxCell id="UnMHtWUnDYg4pS29dPat-60" value="&lt;font style=&quot;font-size: 18px;&quot;&gt;Users&lt;/font&gt;" style="text;strokeColor=none;align=center;fillColor=none;html=1;verticalAlign=middle;whiteSpace=wrap;rounded=0;" vertex="1" parent="1">
          <mxGeometry x="-40" y="200" width="83.5" height="50" as="geometry" />
        </mxCell>
        <mxCell id="UnMHtWUnDYg4pS29dPat-61" value="&lt;font style=&quot;font-size: 18px;&quot;&gt;Requests&lt;/font&gt;" style="text;strokeColor=none;align=center;fillColor=none;html=1;verticalAlign=middle;whiteSpace=wrap;rounded=0;" vertex="1" parent="1">
          <mxGeometry x="250" y="140" width="83.5" height="50" as="geometry" />
        </mxCell>
        <mxCell id="UnMHtWUnDYg4pS29dPat-62" value="&lt;font style=&quot;font-size: 18px;&quot;&gt;Requests&lt;/font&gt;" style="text;strokeColor=none;align=center;fillColor=none;html=1;verticalAlign=middle;whiteSpace=wrap;rounded=0;" vertex="1" parent="1">
          <mxGeometry x="40" y="140" width="83.5" height="50" as="geometry" />
        </mxCell>
        <mxCell id="UnMHtWUnDYg4pS29dPat-64" value="&lt;font style=&quot;font-size: 18px;&quot;&gt;DevOps&lt;/font&gt;&lt;div&gt;&lt;span style=&quot;font-size: 14px;&quot;&gt;&lt;br&gt;&lt;/span&gt;&lt;/div&gt;" style="text;strokeColor=none;align=center;fillColor=none;html=1;verticalAlign=middle;whiteSpace=wrap;rounded=0;" vertex="1" parent="1">
          <mxGeometry x="586.25" y="610" width="83.5" height="50" as="geometry" />
        </mxCell>
        <mxCell id="UnMHtWUnDYg4pS29dPat-65" value="&lt;div&gt;&lt;font style=&quot;font-size: 18px;&quot;&gt;Alerts&lt;/font&gt;&lt;/div&gt;&lt;div&gt;&lt;span style=&quot;font-size: 14px;&quot;&gt;&lt;br&gt;&lt;/span&gt;&lt;/div&gt;" style="text;strokeColor=none;align=center;fillColor=none;html=1;verticalAlign=middle;whiteSpace=wrap;rounded=0;" vertex="1" parent="1">
          <mxGeometry x="943.25" y="610" width="83.5" height="50" as="geometry" />
        </mxCell>
        <mxCell id="UnMHtWUnDYg4pS29dPat-66" value="&lt;font style=&quot;font-size: 18px;&quot;&gt;Pods&lt;/font&gt;" style="text;strokeColor=none;align=center;fillColor=none;html=1;verticalAlign=middle;whiteSpace=wrap;rounded=0;" vertex="1" parent="1">
          <mxGeometry x="560" y="425" width="60" height="30" as="geometry" />
        </mxCell>
        <mxCell id="UnMHtWUnDYg4pS29dPat-67" value="&lt;font style=&quot;font-size: 18px;&quot;&gt;Kubernetes Nodes&lt;/font&gt;" style="text;strokeColor=none;align=center;fillColor=none;html=1;verticalAlign=middle;whiteSpace=wrap;rounded=0;" vertex="1" parent="1">
          <mxGeometry x="570" y="275" width="90" height="30" as="geometry" />
        </mxCell>
        <mxCell id="UnMHtWUnDYg4pS29dPat-68" value="&lt;font style=&quot;font-size: 18px;&quot;&gt;Azure Kubernetes Cluster&lt;/font&gt;&lt;div&gt;&lt;font style=&quot;font-size: 18px;&quot;&gt;&lt;br&gt;&lt;/font&gt;&lt;/div&gt;" style="text;strokeColor=none;align=center;fillColor=none;html=1;verticalAlign=middle;whiteSpace=wrap;rounded=0;" vertex="1" parent="1">
          <mxGeometry x="669.75" y="50" width="90" height="35" as="geometry" />
        </mxCell>
        <mxCell id="UnMHtWUnDYg4pS29dPat-69" value="&lt;div&gt;&lt;font style=&quot;font-size: 18px;&quot;&gt;Microsoft Azure&lt;/font&gt;&lt;/div&gt;&lt;div&gt;&lt;font style=&quot;font-size: 18px;&quot;&gt;&lt;br&gt;&lt;/font&gt;&lt;/div&gt;" style="text;strokeColor=none;align=center;fillColor=none;html=1;verticalAlign=middle;whiteSpace=wrap;rounded=0;" vertex="1" parent="1">
          <mxGeometry x="940.08" y="50" width="90" height="40" as="geometry" />
        </mxCell>
        <mxCell id="UnMHtWUnDYg4pS29dPat-70" value="&lt;div&gt;&lt;font style=&quot;font-size: 18px;&quot;&gt;Grafana&lt;/font&gt;&lt;/div&gt;" style="text;strokeColor=none;align=center;fillColor=none;html=1;verticalAlign=middle;whiteSpace=wrap;rounded=0;" vertex="1" parent="1">
          <mxGeometry x="937.17" y="425" width="83.5" height="50" as="geometry" />
        </mxCell>
        <mxCell id="UnMHtWUnDYg4pS29dPat-71" value="&lt;span style=&quot;font-size: 18px;&quot;&gt;Prometheus&lt;/span&gt;" style="text;strokeColor=none;align=center;fillColor=none;html=1;verticalAlign=middle;whiteSpace=wrap;rounded=0;" vertex="1" parent="1">
          <mxGeometry x="937.17" y="290" width="83.5" height="50" as="geometry" />
        </mxCell>
        <mxCell id="UnMHtWUnDYg4pS29dPat-73" value="&lt;span style=&quot;font-size: 18px;&quot;&gt;Monitoring&lt;/span&gt;" style="text;strokeColor=none;align=center;fillColor=none;html=1;verticalAlign=middle;whiteSpace=wrap;rounded=0;" vertex="1" parent="1">
          <mxGeometry x="934.01" y="150" width="83.5" height="50" as="geometry" />
        </mxCell>
        <mxCell id="UnMHtWUnDYg4pS29dPat-74" value="&lt;span style=&quot;font-size: 18px;&quot;&gt;Pull Insights&lt;/span&gt;" style="text;strokeColor=none;align=center;fillColor=none;html=1;verticalAlign=middle;whiteSpace=wrap;rounded=0;" vertex="1" parent="1">
          <mxGeometry x="816.5" y="280" width="83.5" height="50" as="geometry" />
        </mxCell>
        <mxCell id="UnMHtWUnDYg4pS29dPat-77" value="" style="shape=image;verticalLabelPosition=bottom;labelBackgroundColor=default;verticalAlign=top;aspect=fixed;imageAspect=0;image=data:image/png,iVBORw0KGgoAAAANSUhEUgAAARUAAAGMCAYAAAD0hzZpAAAAAXNSR0IArs4c6QAAAARnQU1BAACxjwv8YQUAAAAJcEhZcwAAFiUAABYlAUlSJPAAADTrSURBVHhe7d0LfM31/wfwt8vsim22xsyd3C9jrj+iUi7lXmlCuVX6CRH/UquVSIShlCJKyC8hyjXkEgkhcgnb2JhlN8Yurv/z/pzP9/juONvOts/mXF7Px+Pb9/v9fG/nHH1f5/P5fL9n32J3DAgAQJHicgwAoARCBQCUQqgAgFIIFQBQCqECAEoV2tWf27dvU0JyKl25lk4ZmdfpNi4yATiU4sWKkZtrKSrj6U5+PqWpeHFjHaVQQuXy1TQ6H59Inu5uVMbLg9zcSokXAACOgysKGRnX6YrhfL+WnkkVA3yprOF8Vx4qHCgxFxOpgr8PeRlCRezccAjUUwAci6gmGCoLPL6ankFxl5KpUvlyakOFmzwnos5TgJ+PqKUUQiUIAGxQMUO4pBmC5WJCitqOWu5D4TBBoAA4Fz7fPfjc93BVGyrc9OE+FAQKgPPh876Mp4faUMm8foNcXV3kHAA4G9dSLmpDhXuDjd02AOCMuG9FaagAACBUAEAphAoAKKX0PpW//jlLtaoEyrmCOR0ZTb/u3EOZ169T6+ZNqWmThnLJXZFRZ+nXXb9TRkYmhTRtRC2aNZFLbEdGRoYYu7m5iTGAo7PJULkQd5HenTxD3EynGT5kgCE4Gss5oriL8fT2xGlyzmjMiBepft0H5dz9l5CQQGPGjqf09HSaFTGdAgPVBC6ALbPJ5s+efX+KQOn/bG96c+wIUbZ77wEx1hw6ckyMBzzbx7TOdkOtxZa4uJSist5lyd/fHzUVcBo2GSqlXIz3uqSlZVByymUx7eJSUow1fOmKXUtLp6TkFDHt4WFbJ27ZsmVozqyZNPfT2eTr6ytLARybTYZK+7atqUxpL1q5Zh19vmAxlShRgjp37CCXGoUENzKsU1qsM++rb8ndUBNo3aKZXAoA94tNhgoHyntvvU7ehm969t6EMVStamUxrfEr50sT3zauw7WWd958jWrXqiGXWm/16jXUODiEVqxYSWt/+pk6dXmCWrRqQzNmzjLUlNLo4MFDFNpvgFhn2EvDKTr6rNySKC4ujiZ+MJke7dhJLOfxVwu/pszMTLE8JSWF+g98QQw8zbTj8Xjrtl/pqWeepWbNW9HY18eL/QHYuxLhBnK6wOITL1M579JyrmBcXUvR3n1/0pXUq/TcM71kaValSpWijVu2i7t4n+71pCzNmxMnTtKv27dTTEwMxcf/S61btaR/4y/Rjp07RUfrxo2bKCSkGQUEBNDu3Xvo7Nlz1L59O3HsLVu20cFDh+i5fqHUo9uTlJCYSP/7foXoQ2lQv7648rNu/QZxnK5dOot+Fe14aelpdPjQX9S6dUtD086FduzYSVevXaP/tGktamYAqvz2+z46ePhvOnnqjMUhyvD/dK0a1eTaBWezocK2/7aXLl9JJX+/cvTnoaP3fBhbtu+i6LMxhg+kKrVpGSK3yhvtJG8a3IQ+nDyRHmrXjurVq0ebN2+myKgoCnt7Aj3Vpze1ad2aTp8+TadOn6EOHdqTj48PBQVVpJ49ulPdunWoWrVq1LBhA/pt924Rcv9p+x+6eeNGtqFS+8EHadrUD6mtYb12bdvS38eOUVRkNHVo357KlFH3GQJcv36Dvl2+ko6d+Oeec+if05HUukVTqhSk7sqkTd/8xle7eZj/9TJas27TPcOfh45QOV8ferpn/mopelwb8fLyEtOVKwVR1SpVqVatWlSndh1R5unpYQiOqqKJkpSULMq4tvLHvv30yadzaeiLL9MLLwwRNZlbt27RHd3lcEv0x/Py8qQa1atTuqFmk3nd2HQCUKVm9ao0btTLhtq/qywx4j//+OKg5/L9hZwdmw4V7aeJnR5tLz6U8aOHZxk+eGc8ffT+BKpSOUiumX+eHp5yyvhhFy9RnAIrVBDNMEu4afPBpA/pvyNG0rmYWHryia408f1wqle3rlwjZ/rjcXPH3R2XnKHwVKtSSZxDfEGD8f/jw4cOLJQbRm27piLHvXt0pToP1hQdsfqhQsADpkvLRe3UqdP0y5Yt9PzAAfTRh5NEM6hmzRp06/YtuQaAbeFgGf/aK6LWzYHStHEDuUQtmw0VbvbcMLQFOTRu38q5KXE/8M8Hrl1LM9Qw3GUJ0cmT/9CZM5FyDsD2VA4KpNlT3y+0QGE2GSo3b96kqRFzKS7+XxEu70z6mC5fviKX2oYAQy2pSpXK9N13y2nBVwtp/oKvaL5hzB24AM7MJkNlx2976Z/TUVS9WhUKNiTqpYRE+nHdJrnUNgRVrEivj3mNPL086bPPvxDNobcmvEHlywfINQCck03+oHD5yrW0act2Gv3KUHGpa+yE96lenVo09tWX5BoAYKtssqZS3xAg7LMFi+mDqbPEdIO6tcUYAGybTYZKg3p1xB2ynh7udP3GDerYoS09+nA7uRQAbJnN/pEmALBPNntJGQDsE0IFAJRSGirF+UY1da0pALAzfP4rDZVSLiUpM/OGnAMAZ8Pnv9JQ8fJwo9RraXIOAJwNn/9KQ8XP24uupWdQWjp+vg/gbPi8v2YYlIYK/wUzf5/SFJeQhGABcCJ8vvN57+/jpfY+FXbz5i1KvpJKl5JTxc1rpQ2Dq6uL6MQFAMfBnbLch5Kali6easEVCp8ypdWHCrtx46ZhuEHJqWmiOnTdMI+rQgCOhSsKfHHG092VfEp7iJYKP0qnUEKF8cPA+E8Y3LLBv4UCAOqUKFGcSpYsKf6aHCu0UNHTP74UAByHFiR6RRIqAOA8lF79AQBAqACAUggVAFAKoQIASiFUAEAphAoAKIVQAQClCvWO2oTkVLpyLZ0yMq/jNn0AJ1EooXL5ahqdj0+k0p7u5OXuRq6lSpoetg4Ajk15qHCgxFxMoIr+vuThVkr8LsDSrbwA4JiUhgo3eU5EnacKfj6GWoqb+JERADgXpVUI7kPhJg8PCBQA56Q0VLhTtowIlBKyBACcjdJQ4as8Hu5ucg4AnJHSUOHLxiVLoFMWwJkpT4Bi+Fu0AE4N1QoAUAqhAgBKIVQAQCmlN7/99c9ZavRgFTmnxtmY83TsxCkxTrl8hSpXqkg1qlamJo3qkWupUnItALAVNhsq/NygZT+spY1bdpCll+jr402hfbpRm5bNnLpzeM68RbRn30Hy8/WhN157hb74ehmV8ylLr770AqWnZ9BHs+ZRo/q1qXe3znILgMJlk6HCTzl8+4OP6VzsBSpT2ou6Pv4w1X2wJlUKqkCnz0TT4aPHadPWnXTj5k16svOj1O+p7nLLgvnjwGGK+OwrOXfX6OGDqUWzxnIufwrjBOfX++3yVRT+5muGkC1rOgZCBe4nmwwVPlHWbf6V2rYKoSED+pKr673NnKTkFJo59ys6E3WWXntlMDVvmv+TXjv5kpKSTSeohk/cvfsPipO0IArjBOdaCsvutSFU4H6wuY7azMzrtMHQ5Anw96MXX+hnMVAYN39GvfwClSrlQouW/iBL807/7T57aniWQGFcQylooAA4E5sLlb/+PiF+7fzsU91y/Q2RXzlferT9fyg55TKdv3BRlubNkWMnRQ3luWd6yZLcJSVfppHjw6nf0FGmgWs02eFlQ179P/rndCSt+HG9WF+rZbC87k9bn/tSeOD1w6fMErU3Hq9cu0GuaRnv29pjAeQZN39UOXwyWk7l3/xvlt8JHTLyTtzFf2VJzrbv+l2sv3b9L7Ikb2Z/vlAM1tq7/5A4Ho81lsrMpaWl33n3w4g7P6xZL0uM8rs/Zv7azY9h6Zg8PWTE/905dcb4b8Vjns/tWADWsrmaSlz8v2LMzRtrcG2FcadtXnHTJ9HwrV8xsLwsyRmvz309rZsHZ+m45emnenQRy3gda6neX264hvPrzt+p6+MdqGZ1Y98Xj3le9bHAedlcqDzgX06Mz8dZ15yJleuVLVNajFU4HXmWhr76hql5wE0KPuHOx8VT7Pk4ahkSLNe8KyiwgljG61hL9f5yczoymtIM76NR/bqyxIiPxU3A9IxMWQKQfzYXKhUe8BfjqLMxYpybyKhz4j6VhvXqyBLrubu7iQ5a8/4Y/vaeP2cKLZ0/S9QY9NzdXS3WoriMl+WV6v3lJi09nd6ZPCNLn4qly+gA+WVzodKmZQi5lCxJazdsodSr12SpZVFnY+n3/QepVUgT8vczNoPyips+p85Ei6aBNdLTM0WHqDku42V5pXp/ueGb5D6Z9r4ITP1g6coXQH7YXKiU8/WmPobaQfy/CfTBtDlibMnfJ/6hKTPn0vXrN6jTow/J0rzr0La1GP+6a48Y56RihQAKqmhollyIkyV3cRkv43WspXp/ualZvaoYczMIoLDYXKiwro89TC2bNaGY83H05ntTxWXYXb/vF5d/uaNxweL/0aSPPzXVZPh2/szr18V0XvG388iXB9G6Tb+a+k709E0jbi51fayDeD36y7A8zdv3f6anWMcSS02tguwvP/i9dmjXir5YtEz0G2n4eLldhgawlk3/oPCHNRvE/+yWXmKNalVocP9n6H+rfhK37deuVZ0mjHmFXFxc5Bp5p/2ORs/D3Z3eeG246WoJ4xNyyszPRP8E4yaF+Z24lui34ys+2k11+d2f+R21HIj6O2jN5zX8mXKQaaw9HoA1bP5XylevpVH02RiKPhcrLhv7lC1L/v6+VK92LdFBy78TmvHpfDp05Jjh5KlDr7/6Iv7wNsB9ZPOhYg3+RfPUWV+IfhZ9DQAAip5N9qnkFTd5Xh85jOrUqkFx8ZdkKQDcDw5RUwEA2+EQNRUAsB1KQ6V4sWJ0+7ayig8A2CGloeLmWorSM/H7EQBnpjRU+DnKyVdyvrUeAByb0lDx8ylNV66mUeo1401cAOB81PapFC9OFQPK0dm4BAQLgJNSeklZc9lQWzkfn0hlvDzJp4wHubu6GgIHz1gGcAaFEiqM/85sQnIqXTHUWDIyr9PtwjkMANiYQgsVAHBOSvtUAAAQKgCgFEIFAJRCqACAUggVAFAKoQIASiFUAEAphAoAKIVQAQClECoAoBRCBQCUQqgAgFJFEir4zSKA8yiSUOEnCQKAc0DzBwCUQqgAgFIIFQBQCqECAEohVABAKWWhgsvGAMCUhQouGwMAQ/MHAJRCqACAUggVAFDK7h8mdj6VaHM0UVSKLJACvYh6PEhU3lMWAECRsPtQCd9J9HeCnDHj6UIU0ZHI200W2InVP66llavX0KyZ08jH21uWAtgHuw+VZ1bz5Ww5Y0EtH6ImAXImGw8YajMtKhB5GELIFiBUwJ4VWZ/KnHmL6HSkoZ2iWG6ReCqZ6PsTOQ+fHiB6b5fcAAAKpEhCJTEphfbsO0hTZn5OZ6LPyVLbEplClJwhZwAg34okVMr5etOAvr0oLT2dPpg2h06cOiOX2JbLmXLCStxMqVqzrmmY/clncokRz+e0nGVkZNCEsHDTOjzNn5O5yMgo6tKtl2k9PjaALSqy5k+XxzrQs326UWbmdfpw+lw6dOSYXGKfOCC43+Pg/j0Uffo4nTh6kOrWeVAsS05JoYGDholpXsYDr7f/wJ9ZgoXXe3H4q1Q+IMC0Xu+e3WnC2+/KNYx4u0ce70oTw8NM++JjI1jAFhXpfSrdu3QUwXLj5k36eM6XdPJUpFxiX/gkX79xE4WHTTB1pLq5udFjHR8V09u37xTjAf1DxZjxerz+vv0HRK2D8XpBQRXpxaGDxDwLadaUxoweKeeMNRkOEC7jZYz3NXLEcFHOwQRgS4o0VFjbVs3Jw8Odbt++TefjLspS+xIbe56CmzSmwMAKsuQuDoE/DMHBAWB+5cbH10f8RuqvI0dN63EthQNJr3KlIDlFdOFCHB08dJjatG4pS4x8fXzEjziTk5JlCYBtKNJQSUq+TOFTIigtLZ06dmhLjzzURi6xL+diYi2GgZ4+GDTuhvW5ZqJnaT1Lnur7nKk/hQduDiUkJsqlALajyEJFC5SExCQRKIP7Py2XOCYOHnPphtoJ13Lyyq9cOdq6aZ2p30Ub1q9dRdWrV5NrAdiGIgmVW7du0cSpsx0mULgpwv0qlvozuPbSIqQZXYyPF00cPW6qcJOlUcMGYj2u7XATyHw9fSBxE6uSoTbDTSYAe1AkoXItLY2SL1+mzo+2d4gaSoP69UQzZtr0CFMg8HjzL1vEdPv27USN5Iv5C8U84wAKnziZ+vTqYapdPNm1s+gv2bBxs5hnfEVnRsRsOWcMKb4iNHrseBFkGu7sXbDwazkHYDvs/jb9p1fJCQWmPUJUtaycsQJfHtYHQMT0qdSzRzcxzSHz/qQptHTZcjHPVixfYrqCo+Fw+O+oMXT8+Akxz1d5uJ/F/DZ9DhTuV9HUrVuHPp01A80fsDkIFZ28hgoA3KvILymr5uchJwrIpQT+TAKACnYfKgMbGN5EAf88rr8hmPrXJ3IrKQsAIN/svvkDALbF7msqAGBbECoAoJSyUEErCgCYslDBw8QAgKH5AwBKIVQAQCmECgAohVABAKUQKgCgVJGECi43AziPIgkVXG4GcB5o/gCAUggVAFAKoQIASiFUAEAphAoAKIVQAQClECoAoBRCBQCUQqgAgFIIFQBQyu7/mv75VKLN0URRZo81DvQi6vEgnuUDUNTsvqby5SGin08THUvIOvxiCJo3thGlZH32uRL8qNIBLwwVYwDIyu5D5ViinLDg2g2iqb8T/e94zsOv54jSDOuqxs8/rlqzrmngh68DOLoiC5U58xbR6UhD9UGx3Bpvp5KJvj+R8/DpAaL3dskNFOFACQufSFs3raPo08fFeN78rxAs4PCKJFQSk1Joz76DNGXm53Qm2lAtsEGRKUTJCptKu/fspS6dHqfq1auJeR6/NHQw/bH/AGVkFEKbDMBGFEmolPP1pgF9e1Faejp9MG0OnTh1Ri6xLZcz5UQ+zP7kszw3cZJTUmjgoGGm5lGXbr3QTwN2r8iaP10e60DP9ulGmZnX6cPpc+nQkWNyif3jIJkRMZtWLF9CPXt0E2VPdu1M6zduEs0gxmHBzZ/ePbuTm5ubqK1Mmx4h5rl5xMOYUSPEugD2rEg7art36SiC5cbNm/TxnC/p5KlIucR+cWiMHjteBEpIs6ay1Njc+XTWDNGvwrWQRx7vShPDw0zrXLgQRzExsdSoYQMxzx7r+KipuQRgr4o0VFjbVs3Jw8Odbt++TefjLspS+3QmMlKERsT0qVkChXHtJXziZFq6eKGohZw4epBWrl4jmkksMLACVaoUJNbhZhCAoyjSUElKvkzhUyIoLS2dOnZoS4881EYusT8JiYk07OURFNykMXXu9JgsNeKQ4AAZOWI4+Xh7izJu8gwd9LypScTz77z1BgUFVaTgkNboTwGHUWShogVKQmKSCJTB/Z+WS+yTX7lyoskTG3uevpi/UJYaJScliycI+Pr4yBIjH18f8vfzE9swDpbJE8NFTYavFHETSeuDAbBXRRIqt27doolTZztMoGg4NMLDJojah9as0XBNJik5Wc4ZcdhcSkgQtRNzLw4dRP1C+5oCB8BeFUmoXEtLo+TLl6nzo+0dJlA03LHKHbB89Ue7nMxlXPPgoNH6S/hqz/yFX4vmUoP69URTZ/MvW8Qyxh23Bw8dthg4APakSEKlTOnStGjuxzQwtLcscSzcSctNIb4KNCEsXAQI96fw5WLuL+GrP3UaBFP5gADR3OFmD5sx6xPTPSrmV4cA7JXd/0r56VVyQoFpjxBVLStnACBfivTqT2Hw85ATBeRSAn8mAUAFuw+VgQ0Mb6KAT1X1NwRT//pEbiVlAQDkm903fwDAtth9TQUAbAtCBQCUQqgAgFIIFQBQCqECAEohVABAKYQKACiFUAEApYokVHB/HYDzKJJQKVasgPfRA4DdQPMHAJRCqACAUggVAFAKoQIASiFUAEAphAoAKIVQAQClECoAoBRCBQCUQqgAgFJ2/4evz6cSbY4mijI+CNAk0Iuox4N47AZAUbP7msqXh4h+Pk10LCHr8IshaN7YRpSSIVd0YPxERH4yIj/pUHtCIsD9Yvc1lWdW86+g5YwFtXyImgTImWw8YKjNtKhA5OEiC6ygPZCdH296v/EznP/Yf4DeeesN0yNVAe6XIqupzJm3iE5HGqoPiuUWiaeSib4/kfPw6QGi93bJDewM10o4UFqENEOggE0oklBJTEqhPfsO0pSZn9OZ6HOy1LZEphAlo9UAUGBFEirlfL1pQN9elJaeTh9Mm0MnTp2RS2zL5Uw5kYsu3XrRjIjZYjDvx9D3b1jq4+BmEw/cZNEvz648MjJKHE/bH09zGeNxr6dDaemy5TR67HixXGuWMW1f2mD+WvYf+JMGDhomxrxfbd9aeVRUtBhr23N5ckpKljI+BoBekTV/ujzWgZ7t040yM6/Th9Pn0qEjx+QS+7N+7SoaM3qkGKJPH6fJE8NF04NPuBeHv0rlAwJEOQ88/f6kKVlO5n2G5kpiUlKWbbMr37Z9B306a4Zpfy8NHUzhEyeLY1WvXo1Wfb+M+oX2pYjpU8Vy7uPhY3GAcLPoxNGDopzHzPy1XEpIoJWr19DSxQvF++J9sh07d9G770+iWTOnie35vYaFT6Swd9+n8LAJomzF8iU0b/5XppADYEV69ad7l44iWG7cvEkfz/mSTp6KlEscw/btO8V4QP9QMWY8HRt7no7+fTdE+S/h9e7VQ87dZal8yKDnTSc6a9++nRifOZP9Z8fHOnjoMA01bKsFFo/HjR19z2s5fvwE9e7ZnXy8vWXJXRxQWvmTXTuLccdHHja9ngb161Fwk8b015GjYh6AFWmosLatmpOHhzvdvn2bzsddlKX2j7/9uWYQ0qxplhPU3XAyBwVVFCezhue53Fx25fomUHBIa1GLyMnuPXvFyR4YWEGWGGmvhZdr6tatQ74+PnLurofataUaNarLOSIfXx/y9/MT2wPkpEhDJSn5MoVPiaC0tHTq2KEtPfJQG7nEcWj9LNpQp0Gw6PPQ4yaRVoPQMy/XmjH/HTXG1AQ6uH+POOFzY+kYPM/lehwUHBgAqhRZqGiBkpCYJAJlcP+n5RLHovVtmA89e3STa1iPmylcw+H+Dn0TyBoX4+Oz9J0wnudygMJUJKFy69Ytmjh1tkMHCtcC+F4RbgKZn8wqcV9Kbs2fNq1bijBKN3sdPM/lvBygsBRJqFxLS6Pky5ep86PtHSZQKlcKuqc2wJ2ofNJ+MX+hLDHWDvgyL1+tySvu6+CrM1qnLO9Df8k4O9yByn0f06ZHmF4fj3me+3x4ACgsRRIqZUqXpkVzP6aBob1lif3TAoT7TLT7P7iDli/B8v0c+j4VDiBLV1dyw00evoT8VN/nxL76DRgkrsjk1qfCtSa+JM39J3x87XVwTcoWflYAjs3uf/vz9Co5ocC0R4iqlpUzAJAvRXr1pzD4eciJAnIpgT+TAKCC3YfKwAaGN1HAp6r6G4Kpf31Ds6GkLACAfLP75g8A2Ba7r6kAgG1BqACAUggVAFAKoQIASiFUAEAphAoAKIVQAQClECoAoBRCBQCUKrQ7anm3GZnX6fqNG3Tz5i1ZCgCOrlBChYPkWlqG+Du0AOBclIcKB0rq1TQ5BwDORmmfCucT11AAwHkpDRXuQ0GTB8C5WR0q3+y5QpXHR4qBpy3hpg8AODer+1Q4TBKuGq/i+HmVoHNT7z5oSpOYfFlOAYCzsrqmogUK008DAOjh5jcAUAqhAgBKWd2n4vHKKTlllDa3lpy66372qfADy5YsX0XHTp4WT0TMjqurKzVpWI/69Ohi8WHoAFAwDhMqG375lX7euJXKBzxApb3ufdZGRmYmxcReoGLFion7aSoFBdKIF58nD3d3uQYAqOAwzZ/kFONl7oHP9qaRLw+6Z3i2T3exPLhRfQosHyAC5pMvvr7necO27PDhv2jEq6Po8uXCCe+zZ89RaL8B1Kx5K1q/YaM4Hs9zubacj6/NA1jidH0qHh7uNOqVwaZgmTNvUb6CZf6Cr8TJZz5M/vAjysjIlGvZD37NS5Yuo4ED+9OBfb9Tl86d5BKAvHGYUDG0aswmLOPmDzd5Rg4fROUf8BfB8t2KNXJp3vTp3Yt+27ldnITa8IBhn/9p1158y9uT+Ph4unDhAtWrW1eWEDVu3IiWLV1MVapUliUAuXOamoq/ny+VKF6cTv5zhtZt2kbbd+2lWjWriWVHj58UYxWGDhlMH0x8j6Z8NA3NBHBKDhMqpu7mbPqd+UpPp47tKTE5hdZv3iaGnbv/EMtU/72Xhzt0oIYNG9Cx48dliRH3U1jTVDJvWvF2lvC2vA9eR18z0m9v3gej9cto/SU8LF68hHo/9Qzt+X2vGGv709bNrQ8np+OB83Gq5k+Xxx6miW+NpVHDB5sGv3K+cqk6bm6uohl08OAhceJrJz/Pa80lHrMZMyNMwaKt9++/l0zrbf1lI/n4+Ijl5r5dsoSOHDlKK1f8TzRVLG3/xBNd6a2338lyoicmJtHP69bT5599Ipo3AwY8J/bRulVLMebteH+5sfZ44FycpqaiKV3ai2pWr2oaXF1LiUvMqlWsWFFOEZ08eVKc/M/1CxWBw3j831deFv0YvJxt+/VXMc/l2nply5alVi1biGk9rr1s2bKNpnw4ydTnYek4XGsKDAyk3Xt+F/Psn1On6ImuXcS+C8La44FzcZo+lftp3/79ojkUEBAgS4xcXd3ECcjL2fnz56lJk8a5nuyHDh2mt8PepTf+b1yWTlRLx+GTnWtNvG/Ng7Vqkbe3t5zLP2uPB84FoVJI+KTik0v7BtdPa7QTkHFTgpsR+hqOJdzvMeb18TT85RctNlF+WLlKXH3S+jh4+OzzL+RSo3KGJp+3d8FqKRprjgfOBaFSCLg/gWsTzUNCZAmJwND6TjRakOQF93t8Nf8L0fSx1IHLYcN9G+YDX5UqDEV9PLB9CJVC8P2KH0Szpnbt2mKew4X7SjIzs95kx/Nczsu51hIc3MTUuZuTqlWriKYPN4H0wcL74TArqk7Soj4e2AeEikJ8cvElVT7R9J2tHC4cMp/O/dwUGDzmee5D0ZoxbVq3EiHDV3U0vM/f9xovfevxNnw/DAeLdjnZ0nHYkqXfFco9M0V9PLAPCJUCMO9PeKRjJxo2dAh9MmdWls5WDpcJb/6f6D/R1ucx10z0zQTe5uNpU0WTSL/P7H5NzbfSc7AMHvqiuFeEjzPmtdFimf51paenFcpdsUV9PLAPDvMr5WUr1tDuvftp/KiXxS+QrTVl5ly6EBdPs6e+J0sAoCBQUwEApRymprJ91++04sd11KxJQ3rA30+W5uzOndu0dcceCvAvR+NHD5elAFAQDhMqqVev0mfzv6WY8xdkiXW8PD0o9Kke1KjB3V/nAkD+OUyoaDhUMjOvy7ncVakURC4uJeUcABSUw4UKANxf6KgFAKWsDhV+KqFGPw0AoGd1qHzQy0+ECQ88bUnJkggbAGdndZ+KNdIzMikt3X7+Oj0AqKe0T8XNtRQVL45uGgBnpjQB+C/Ve3rgqX8Azkxp80dz/cYNupaWQbdv35YlAOAsCiVUGO82I/O6CBjVf60eAGxXoYUKADgn9KoCgFIIFQBQCqECAEohVABAKYQKACiFUAEApRAqAKAUQgUAlEKoAIBSDnNH7dWr12jeoqV0+OjxHH8WwA/AatG0MQ0M7U0e7u6yFABUcZhQWbl2A634cT1VDCxPZUp7ydK7MjIyKOpsrPglNb/lalWC6K2xI8jDA8ECoJLDhMr8b74Tz/CZFDZOBIa5yOhz9PYH06l182CKjYunmNgLxmB53RAsqLHYnP0H/qSw8In06awZVL16NVkK9sDp+lQ8PT0pbNyr4tGoXHOZ9PEnlJaeLpdaJzklhQYOGkZVa9bNMkwICxc1Ik1263Xp1osiI6PkWnet/nGtWM4nlCXacvOBj8HHMjf7k8/Ect4uJ9p+9etp25oPue0LwIFCpZjxv8ZRtng5P0AszFBDqVghQATLgm+Wy6V5EzF9KkWfPi6GE0cPirL3J03JEixMvx4P69euuufbl7f5Y/8BevKJLrRy9Zp79qF5qF1bOrh/T5b99e7ZnYJDWmd7wvN+s9ufdlxL+oX2Fe9Lf6yePbrJpQCWOU1NpXyAP5UoUYKOHvuHfliznjZu3UH16hifXfTnX3+LcUG4ubnR0EHPU0xMLF24ECdLrcfbpKam0gsD++d5H3yir1i+hEaPHX9PLYeDITb2PB39+5gsyYrLDx46TO3a/keWABSMA4WKsWsoux4i7jfp+cTjdCkx0RAqG8SwedsusezGjZtifD/9deQo1apZk0KaNaXmIc3EfF7wdmNGj6Tde/bKkrvq1qltsfbD81w+4LlQqlTp3n6ovODmEg8calpTSWuW6cuya/rpm1tiu+RkuQTsjVM1f/p070yzPwqnt8e9ahoCrHyYuzWSDCcCX13y8fWRJdbhE49P7jatW4p5HvO8pX6SnFQ2BAOfwObb9ej+pMXaD89zeZPGjWRJwcyImC1CjZtJ3ERjI0e/Tpt/2WpqRnXp9DjNX/i1KeB4zH1RF+PjTeuEh02gGbM+EcvB/jhNTUXjXbYM1atd0zTwfSsqLoDxiczftty/4ePtLUuNuFmifQvzYN6he+ZMpBjXqFE9y1grt1ZQUEU5lVX1alVF7eendRtkiRHPczkvt2TpsuVUp0Gw6XVnV8vQcH/PgP6hYpo/A/4sEgw1w75P9xHNQ/Zk185ZAo6bX9w8Gzd2tGkd7m96aehgMQ32x2n6VAqDPixGvTaOZs2cZrEj07yjdvLEcNMJxPjbnZsvWhjxmOctNWXyi2s/+loMh8M+7hg2nOTZMe+otdTBrKd/D4xDzt/PL8eaG79HXs9d93mw7AISbB9CpQC0sNCq+ou/XSbGecEn9/qNm0TTQQsoHniey3OqGZjjb3xLJyhrUL+eWLZ9+04xz3023I8SGFhBzN9P5QMCsoQs2DeEigL87cz9ABwC5ldfcsMnN3+bm18m5nkut7bDlptTfGm4haE5Y+kE5TJexn01UVHRYszNE5zMoBpCRRGtH4D7VaztYNWCwLzZwLQmUE73mOht2LhZ1FTat28nS+6lLVv783pRa+Hay/2WXecyvxewTwgVhbST1tpmEHdW8j0i2lUfc1zOy3O6Z0W7ejJv/leitmQeTnq8jGsn3LTKrkZjLQ7P7O7kzQtLnxmHDPdXgX1CqCjEJ+3IEcPFSau/u9X86g8PfOLw1Rdu4mhXe8xxTSK4SeMsV2127Nwl7p7V9sNXZzggcutE1TRq2IC6Pdk1xxqNxvzqDw8cJirxZ8Yd3Px5aMfgptniRQvkGmBvnOYHhdl5872pdC72Ai35MkKWAEBBoKYCAEo5TE1l45Yd9PWyH6h1i6YUWP4BWZqz27fv0LpN26iCYf3J74yTpQBQEA4TKldSU+mjiHkUdTZGllintJcnDXs+lEKCG8oSACgIhwkVDYdKekamnMtdrepVyMXFRc4BQEE5XKgAwP2FjloAUAqhAgBKIVQAQCmECgAohVABAKUQKgCgFEIFAJRCqACAUggVAFAKoQIASiFUAEAphAoAKIVQAQClECoAoBRCBQCUQqgAgFIIFQBQymH+8tvVq9do3qKldPjocbp585YsvZebmyu1aNqYBob2Jg93d1kKAKo4TKisXLuBVvy4nioGlqcypb1k6V38JL+os7FUrFgx4rfMzwZ6a+wI8vBAsACo5DDNn6Rk4+M3XxkygMLGvXrPMGRAX7G8VUgTqhQUKAJm0vRPKC09XZRDVpGRUdSlW688P3DeGrxP/SNTeZ6Pxcd0RPxUR9VPdrRlTten4unpKULGFCwfI1gAVHKgUClm/K9xlC1e7uXpQWGvj6CKFQJEsCz4ZrlcChp+LjM/nzmkWVNZUnj4GNY+Cxpsn9PUVMoH+FOJEiXo6LF/6Ic162nj1h1Ur04tsezPv/4WYwAoOAcKFWN/c3bdznylp+cTj9OlxERDqGwQw+Ztu8SyGzduinFerP5xLVWtWdc0TAgLF53BTOuP0C/nQes34L4E7lMw76+w1Negrcfb6vsdzI/Br8cavN2AF4aKMbfzte31x2X69cznc9pOY806muzed1RUtBhr+7HUL8Hrast54Hk983+n7Pah/2w1/Hr4+Lxce//Hjp8Q/9ba/nj//O+uL7N0DGfiVM2fPt070+yPwuntca+ahgB/P7nUevw/27mYWDpx9CBFnz4uxuyL+QvFWGs68DIeDu7fQw+1a0svDR2c5yr+pYQEWrl6DS1dvNDUROD/yR95vCtNDA8z7Z/XsTZY2LvvT6I2rVuaXiM3QUa9Ni7Hk5/ltp12gl2Mjzd9Pr17drdq33o7du4Sx5o1c5rYx4rlS2hGxOwsocHvNyx8Im3dtE6sw2Oe19bhMX8u/Pnwch77W/j3rlGjOvn7+dFfR47KEqMzZyLFmJezBMMX0tjxb9LQQc+L/UVMn0rz5n9Fw14eId6j9hrWb9yU5XU6G6epqWi8y5aherVrmga+byWvV9V9vL1p5Ijhhm3dxDyP+X8q/h/J0omz+NtlFBRUkTp3ekyWWO+44ZuR983HZHzS8okyZvRIU3+H9nq43JoTl0+OPr16ZOkvGdA/VIy3b98pxpZYs93Rv4/RwUOHxYmnfT78vvn957RvS/g9ae+7Qf161C+0L+3es1fM8/vk96sPah7zPJfz58Tr8mvV9sHj0L5Pi2k9Luf1/th/wFTb1D5n/WfP9Mdr376dCKPmIc1Mnwkv69LpcdPrdEZO06dSGPRV66f6PidLs+Kg4W8u/UmWF3Xr1iFfHx85R3ThQpw4abm2oMfrcDgmJyXLkpzxSa6nnVhcA8tJbtvxyRTcpDEFBlYQ84zfd/mAgFz3rcc1O62GwLR9cA2IT3iuRXAtrlHDBnINI359sbHnKd2wDn9GXLuxpgb3ZNfOFGN4ffz5Mh7zvH7/fuXKZZl3N7wmPl7lSkGyBBhCJR+4fc1tcP5m06r4XD03x9+m3L7mby7t2y2v+JvQx/duqGg4xLRA44GbQ1yTYHxcfV8ED/p2Pp8c+qCylrXbLV22nOo0CM5yfD65VeNaHL9v/XH04c5hx/8uo8eOF8ty6uvgEKxkCAetCcRjnteHI1gHoZIPP63bIIJi8sTwHGsf3OxhWhNBFT65tX4E/aD1uXDt4ZuFX2ZZxk2JnPC3P9cC8vqta2k7bprpj23ta8grrs1o/SX6gd+71mThYOEyra9D36Gux/+OLQzNGP6i4FDmMc/np3bp7BAqipi3obnZw9/O+n4BjVZt5mq6nvm8JebfqPnBNRrz7bVmlXnzRs+a7bjJkV3fkkpa00jrTM0Nhy13bGtNI0u4acNNnv2GQElNTRV9JpB3CJV84G9l/YmjBYhGa/boO1P1tG9FfccqN6n4SkJueFvuPOQqPR9Xw9svWPi1nMsdH0u7hMrf3PMN23JfCHeI5iS37XjMATNtekSWGgG/Nm07FTio+XPgqz36/fJnovWhLFv+fZZw4+Dn18ahzttwE1bf36IF9o9rf6ZaNWve82UA1kGo5IN2NSM4pLVoq3M4LF60QC41Nnv4kigHjb69z4MWBOb74JNzwv+NE8tyo/UV6PtV/jtqDD3c/iG5Rs64+cTf2uETJ4ttuf+DO0Fza85Zsx2P33nrDTGt71e5di0t3/1K2enZo5u4GqPvV+Ew12oYly4lmD5fHriZxq8tu/eoBfZPP6+/pyMc8oB/pewIvvx62Z3QISPvREbHyBLrvBH+0Z1+Q0fJOcdnaC7c6f/8EDHOi/xuZ2/27T9wZ8ALQ+8kJSfLEsgr1FQAJG6uWbo3BfLGYUKlUsVAMf5p4xbx2x5rhu9XrzNUiS9RlUrZd06C8+Ab97gjFx20BVOMqyty2q5dSU2ljyLmUdTZGFlindJenjTs+VAKCW4oSxwbd1Dy7e/vvfNWnvo48rudPeD3xn1S7NNZMxzu/RU1hwkVDYdKekamnMtdrepVyMXFRc4BQEE5XKgAwP2FjloAUAqhAgBKIVQAQCmECgAohVABAKUQKgCgFEIFAJRCqACAUggVAFAKoQIASiFUAEAphAoAKIVQAQClECoAoBRCBQCUQqgAgFIIFQBQCqECAEo5zJ+TvHr1Gs1btJQOHz1ON2/ekqX3cnNzpRZNG9PA0N7k4e4uSwFAFYcJlZVrN9CKH9dTxcDyVKa0lyy9i5/pEnU2looVK8YPUKNqVYLorbEjyMMDwQKgksOEyvxvvqOtO/bQpLBxIjDMRUafo7c/mE6tmwdTbFw8xcReMAbL64ZgsYMaCz8TeNRr48SDrvhxnwC2yun6VDw9PSls3KtUKShQ1FwmffwJpaWny6WQHX5GMQ95wc/TGfDCUDEG5+FAoVLM+F/jKFu83MvTg8IMNZSKFQJEsCz4ZrlcCgAF5TQ1lfIB/lSiRAk6euwf8cjTjVt3UL06tcSyP//6W4wBoOAcKFSMXUPZ9RBxv0nPJx6nS4mJhlDZIIbN23aJZTdu3BRja2nV+v0H/qSBg4ZR1Zp1xbSGmwlcxgMv5/4QPf1yHiw1K3h/+nX27z8glxhxx/OEsHBa/eNaMWjrcRkv05dZeg38Hrp062Vah9e3RFtvRsRsMWjHOH78hCjXb6e9Jh543Uce70o7d/0mxryd/jMCB8YdtY7gy6+/uxM6ZOSdqLMxssSy5JTLd/4+cco0jH7j/TvPDRstl1rnzJnIO/2fH3LnvyNfE9Oa9PT0O2++/a4YeJqtWr3mjiGA7iQlJ4t5Xn/+V4vENONyXs7raXi685M9TfvW9lulRh3TepbKeH3ejl/XrDlzRZm2njbP9u0/ILbjMbP0Gszx9vp9MN5e/zp53vy98uekLQfn4DQ1FY132TJUr3ZN08D3rRg+B7nUegmGGk/HRx7O8jDvo38fo4OHDtPQQc8b9usmyjp3eoyCgirS9u07xTyvP8SwXOPj7S2u6PxhqInwNz3XKFauXkMTw8NM++Z98T7r1q0j5vX6hfYVx2C8fpdOj9OVK6k0oH+oKONtef9cS+B98zF4/2NGj6SQZk3FOvwaRo4YLsrNazQ5aVC/HgU3aUw/rdsgtuMaF++H9wfOy+mu/qjEYaG3e89ecZIFBlaQJcaTunxAAJ2LiZUlRvom0Oix42UpkeFbnS4lJJCvj48sMfLx9SF/Pz85d1eLkGamAGOVKwWJ1+WuK9O7cCFOBF+b1i1liREfj8M1OSlZluROCztDDYU+nzdfHJeDBpwbQiWf/MqVu+fEZ0uXLac6DYJNgcED9y9otL4SFn36uBgipk8V8xoODw6RwvRU3+eyvEbu9+DaV15x7ahPrx60Y9dvWWpo4LwQKopxs0ILC/3AzQKt6cEhwvP3Cwfi1k3r7nmN69euytKcswZ35P6w6kexT24GASBUFOImhdZ3YS0OGu5P0XDth5s/3AzS42YJlxcUN80qGZpIfx05Kkvyj1/7/IVfU3NDE+y9d96i9Rs34QoPIFRU4v4E7leYNj1CnHCaBYYTj7/Rtf4VrVOWbdi4WTSZNFpnK/e5aOHE4/CJk8Vl3ILi18Adt9yPow8Afn38Ohkfjy9D6y91c1/Nxfj4LO+LX3ts7HnRKcyv+6Whg7O8bm7C8W+tkpKt76cB+4dQUYhP2HfeekNM6/tVrl1LMzUr+ATkE1Fbzh245n0q3DTiKzPBIa3FOv0GDBJlD7VrK9coGN73iuVLsvSr/HfUGHq4/UNyjXu1b9/O9Lr5PpTde34XwcQBpV3t4XXY4m+XibF2ZUs7DmoxzsFpflCYnTffm0rnYi/Qki8jZAkAFARqKgCglMPUVDZu2UFfL/uBWrdoSoHlH5ClObt9+w6t27SNKhjWn/zOOFkKAAXhMKFyJTWVPoqYR1FnY2SJdUp7edKw50MpJLihLAGAgnCYUNFwqKRnZMq53NWqXoVcXFzkHAAUlMOFCgDcX+ioBQClECoAoBRCBQCUQqgAgFIIFQBQCqECAEohVABAKYQKACiFUAEApRAqAKAUQgUAlEKoAIBSCBUAUAqhAgBKIVQAQCmECgAohVABAKUQKgCgFEIFAJRCqACAUggVAFAKoQIASiFUAEAphAoAKIVQAQClECoAoBRCBQCUQqgAgEJE/w+0zhKhfNPc5gAAAABJRU5ErkJggg==;" vertex="1" parent="1">
          <mxGeometry x="80" y="450" width="163.01" height="233.04" as="geometry" />
        </mxCell>
        <mxCell id="UnMHtWUnDYg4pS29dPat-79" value="&lt;font style=&quot;&quot;&gt;&lt;span style=&quot;font-size: 18px;&quot;&gt;Load Balancer&lt;/span&gt;&lt;br&gt;&lt;br&gt;&lt;/font&gt;" style="text;strokeColor=none;align=center;fillColor=none;html=1;verticalAlign=middle;whiteSpace=wrap;rounded=0;" vertex="1" parent="1">
          <mxGeometry x="110" y="200" width="110" height="50" as="geometry" />
        </mxCell>
        <mxCell id="UnMHtWUnDYg4pS29dPat-80" style="edgeStyle=none;rounded=0;orthogonalLoop=1;jettySize=auto;html=1;exitX=0.5;exitY=0;exitDx=0;exitDy=0;" edge="1" parent="1" source="UnMHtWUnDYg4pS29dPat-79" target="UnMHtWUnDYg4pS29dPat-79">
          <mxGeometry relative="1" as="geometry" />
        </mxCell>
        <mxCell id="UnMHtWUnDYg4pS29dPat-81" value="&lt;span style=&quot;font-size: 18px;&quot;&gt;135.236.239.14&lt;/span&gt;" style="text;strokeColor=none;align=center;fillColor=none;html=1;verticalAlign=middle;whiteSpace=wrap;rounded=0;" vertex="1" parent="1">
          <mxGeometry x="110" y="110" width="110.24" height="50" as="geometry" />
        </mxCell>
      </root>
    </mxGraphModel>
  </diagram>
</mxfile>
